<?xml version="1.0" encoding="UTF-8"?>
<svg id="logo-footer" data-name="Calque 2" xmlns="http://www.w3.org/2000/svg" viewBox="0 0 800 800">
  <defs>
    <style>
      .cls-1 {
        stroke-width: 0px;
      }
    </style>
  </defs>
  <path class="cls-1" d="m692.91,400.01c0,161.58-130.83,292.6-292.33,292.91-.07,0-.13-.01-.19-.03h-.39c-53.91,0-97.62-43.7-97.62-97.62s.08-97.62,97.62-97.62v97.62c0-.32.25-.57.57-.57,34.04-.1,66.02-8.94,93.83-24.39,1.08-.59,2.15-1.2,3.22-1.82,68.83-39.97,110.93-120.91,92.89-209.43-15.31-75.17-74.39-134.25-149.56-149.56-125.43-25.56-235.64,69.61-235.64,190.51v195.27c53.66.3,97.07,43.9,97.07,97.64h-.64c-19.17,0-36.47-10.82-45.57-27.7-9.78-18.13-28.87,26.5-50.86,26.3-.19,0-.38,0-.57,0-22.26,0-41.62-44.54-51.47-26.22-9.08,16.87-26.44,27.63-45.61,27.63h0c-.27,0-.5-.2-.56-.46,0,0,0-.03,0-.04,0-.02,0-.05,0-.07v-289.7c0-172.52,140.99-306.59,313.11-294.86,152.35,10.37,272.71,137.24,272.71,292.22Z"/>
</svg>