<?xml version="1.0" encoding="UTF-8"?>
<svg id="logo-header" data-name="Calque 1" xmlns="http://www.w3.org/2000/svg" viewBox="0 0 979.3 985.44">
  <path class="cls-1" d="M0,6.37h70.06c12.53,0,23.62,2.44,33.28,7.32,9.66,4.89,17.25,11.73,22.77,20.54,5.52,8.81,8.28,18.84,8.28,30.1,0,12.53-2.76,23.09-8.28,31.69-5.52,8.6-13.11,15.18-22.77,19.75-9.66,4.57-20.76,6.85-33.28,6.85h-25.48v362.83H0V6.37ZM44.59,42.99v42.99h22.29c6.16,0,11.25-1.7,15.29-5.1,4.03-3.39,6.05-8.92,6.05-16.56s-2.02-13.11-6.05-16.4c-4.04-3.29-9.13-4.94-15.29-4.94h-22.29Z"/>
  <path class="cls-1" d="M155.1,6.37h44.59v440.86h76.43v38.22h-121.02V6.37Z"/>
  <path class="cls-1" d="M349.37,6.37h50.96l63.69,479.07h-47.77l-9.87-27.07h-63.06l-9.87,27.07h-47.77L349.37,6.37ZM356.37,421.75h36.94l-18.47-371.11-18.47,371.11Z"/>
  <path class="cls-1" d="M529.46,427.04c4.35,6.8,9.71,12,16.08,15.61,6.37,3.61,12.63,5.41,18.79,5.41,9.76,0,18.1-1.64,25-4.94,6.9-3.29,12.37-7.59,16.4-12.9l12.74,40.45c-5.1,5.1-11.62,9.24-19.59,12.42-7.96,3.18-18.42,4.78-31.37,4.78-18.47,0-34.5-3.87-48.09-11.62-13.59-7.75-24.1-18.1-31.53-31.05-7.43-12.95-11.15-343.28-11.15-359.2s3.71-30.36,11.15-43.31c7.43-12.95,17.94-23.3,31.53-31.05,13.58-7.75,29.62-11.62,48.09-11.62,12.95,0,23.41,1.59,31.37,4.78,7.96,3.19,14.49,7.33,19.59,12.42l-12.74,40.45c-4.04-5.3-9.5-9.6-16.4-12.9-6.9-3.29-15.24-4.94-25-4.94-6.16,0-12.42,1.81-18.79,5.41-6.37,3.61-11.73,8.81-16.08,15.61-4.35,6.8-6.53,15.18-6.53,25.16s2.17,334.26,6.53,341.05Z"/>
  <path class="cls-1" d="M645.54,6.37h121.02v36.62h-76.43v23.89h66.88v36.62h-66.88v343.72h76.43v38.22h-121.02V6.37Z"/>
  <path class="cls-1" d="M0,485.44h44.59v394.9h60.51v-394.9h44.59v493.63h-44.59v-60.51h-60.51v60.51H0v-493.63Z"/>
  <path class="cls-1" d="M183.92,528.12c6.9-12.95,16.88-23.3,29.94-31.05,13.06-7.75,28.82-11.62,47.29-11.62s34.24,3.88,47.29,11.62c13.06,7.75,23.03,18.1,29.94,31.05,6.9,12.95,10.35,27.39,10.35,43.31s-3.45,358.39-10.35,371.34c-6.9,12.95-16.88,23.3-29.94,31.05-13.06,7.75-28.82,11.62-47.29,11.62s-34.24-3.87-47.29-11.62c-13.06-7.75-23.04-18.1-29.94-31.05-6.9-12.95-10.35-355.41-10.35-371.34s3.45-30.36,10.35-43.31ZM225.96,924.61c4.14,6.8,9.4,12,15.76,15.61,6.37,3.61,12.84,5.41,19.43,5.41s13.06-1.8,19.43-5.41c6.37-3.61,11.62-8.81,15.76-15.61,4.14-6.79,6.21-343.2,6.21-353.18s-2.07-18.36-6.21-25.16c-4.14-6.79-9.4-11.99-15.76-15.61-6.37-3.61-12.85-5.41-19.43-5.41s-13.06,1.81-19.43,5.41c-6.37,3.61-11.62,8.81-15.76,15.61-4.14,6.8-6.21,15.18-6.21,25.16s2.07,346.39,6.21,353.18Z"/>
  <path class="cls-1" d="M372.61,485.44h44.59v455.41h76.44v38.22h-121.02v-493.63Z"/>
  <path class="cls-1" d="M514.33,485.44h70.07c27.81,0,48.57,7.32,62.26,21.97s20.54,33.87,20.54,57.64-6.85,377.39-20.54,392.04c-13.69,14.65-34.45,21.97-62.26,21.97h-70.07v-493.63ZM610.19,931.3c7.22-6.37,10.83-351.38,10.83-366.24s-3.61-25.48-10.83-31.85c-7.22-6.37-15.82-9.55-25.8-9.55h-25.48v417.2h25.48c9.98,0,18.58-3.18,25.8-9.55Z"/>
  <path class="cls-1" d="M691.08,485.44h121.02v36.62h-76.43v23.89h66.88v36.62h-66.88v358.28h76.43v38.22h-121.02v-493.63Z"/>
  <path class="cls-1" d="M835.98,485.44h70.07c12.52,0,23.62,1.75,33.28,5.25,9.66,3.5,17.25,9.29,22.77,17.36,5.52,8.07,8.28,18.79,8.28,32.17,0,12.53-3.45,356.64-10.35,363.53-6.9,6.9-16.08,11.52-27.55,13.85l46.82,61.47h-50.96l-47.77-60.51v60.51h-44.59v-493.63ZM880.57,522.07v371.02h21.34c5.94,0,11.15-1.16,15.61-3.5,4.46-2.33,6.69-341.72,6.69-349.36s-2.23-12.58-6.69-14.81c-4.46-2.23-9.66-3.34-15.61-3.34h-21.34Z"/>
</svg>